<svg class="star" xmlns="http://www.w3.org/2000/svg" xmlns:xlink="http://www.w3.org/1999/xlink" version="1.1" width="256" height="256" viewBox="0 0 256 256" xml:space="preserve">

<g style="stroke: none; stroke-width: 0; stroke-dasharray: none; stroke-linecap: butt; stroke-linejoin: miter; stroke-miterlimit: 10; fill: none; fill-rule: nonzero; opacity: 1;" transform="translate(1.4065934065934016 1.4065934065934016) scale(2.81 2.81)" >
	<path d="M 89.902 34.728 c -0.235 -0.724 -0.861 -1.251 -1.614 -1.361 L 59.616 29.2 L 46.794 3.219 C 46.456 2.537 45.761 2.104 45 2.104 s -1.457 0.432 -1.793 1.115 L 30.384 29.2 L 1.712 33.367 c -0.753 0.109 -1.379 0.637 -1.615 1.361 c -0.235 0.724 -0.039 1.519 0.506 2.05 l 20.747 20.223 l -4.898 28.557 c -0.129 0.75 0.18 1.509 0.795 1.956 c 0.616 0.447 1.433 0.506 2.106 0.152 L 45 74.184 l 25.645 13.482 c 0.293 0.153 0.612 0.229 0.931 0.229 c 0.414 0 0.827 -0.129 1.176 -0.382 c 0.615 -0.447 0.924 -1.206 0.796 -1.956 l -4.897 -28.557 l 20.747 -20.223 C 89.941 36.247 90.138 35.452 89.902 34.728 z" style="stroke: none; stroke-width: 1; stroke-dasharray: none; stroke-linecap: butt; stroke-linejoin: miter; stroke-miterlimit: 10; fill: rgb(250,180,0); fill-rule: nonzero; opacity: 1;" transform=" matrix(1 0 0 1 0 0) " stroke-linecap="round" />
	<!-- <path d="M 44.448 65.427 h -5.771 c -1.381 0 -2.5 -1.119 -2.5 -2.5 s 1.119 -2.5 2.5 -2.5 h 5.771 c 2.412 0 4.375 -1.963 4.375 -4.375 s -1.963 -4.375 -4.375 -4.375 h -5.771 c -1.381 0 -2.5 -1.119 -2.5 -2.5 V 38.375 c 0 -1.381 1.119 -2.5 2.5 -2.5 h 12.646 c 1.381 0 2.5 1.119 2.5 2.5 s -1.119 2.5 -2.5 2.5 H 41.177 v 5.801 h 3.271 c 5.169 0 9.375 4.206 9.375 9.375 S 49.617 65.427 44.448 65.427 z" style="stroke: none; stroke-width: 1; stroke-dasharray: none; stroke-linecap: butt; stroke-linejoin: miter; stroke-miterlimit: 10; fill: rgb(86,49,0); fill-rule: nonzero; opacity: 1;" transform=" matrix(1 0 0 1 0 0) " stroke-linecap="round" /> -->
</g>
</svg>