<?xml version="1.0" encoding="utf-8"?>
<!-- Generator: Adobe Illustrator 24.0.1, SVG Export Plug-In . SVG Version: 6.00 Build 0)  -->
<svg version="1.1" id="Layer_1" xmlns="http://www.w3.org/2000/svg" xmlns:xlink="http://www.w3.org/1999/xlink" x="0px" y="0px"
	 viewBox="0 0 900 1492" style="enable-background:new 0 0 900 1492;" xml:space="preserve">
<style type="text/css">
	.st0{fill:#090A08;}
	.st1{fill:#84BDC8;}
	.st2{fill:#FFFFFF;}
	.st3{fill:#E5A26E;}
	.st4{fill:#FFCEBF;}
	.st5{fill:#B65284;}
	.st6{fill:#969ABF;}
	.st7{fill:#923E72;}
</style>
<g>
	<path class="st0" d="M892.98,1424.9c-13.69-119.27-36.44-238.28-64.17-355.27c-50.38-229.84-104.98-166.01-119.96-221.66
		c47.34-47.97,49.03-87.18,14.9-136.82c35.56-43.8,26.76-84.56,3.86-127.03c69.68-87.85,36.43-174.68,12.79-266.63
		c-17.06-52.5-23.31-112.03-41.63-156.92c-43.63-95.61-68.33-48.79-84.19-98.19c-76.57-122.09-344.57-22.11-395,73.55
		c-65.23,109.14-104.34,298.11-91.15,397.66c7.79,40.64,36.32,65.58,63.87,89.57c-9.62,51.47-1.48,76.38,30.48,106.04
		c-20,30.25-20.35,56.5-9.87,84.53c4.22,11.72,13.08,19.23,20.74,28.13c-7.67,20.37-11.56,18.93-23.38,25.73
		c-51.38,31.62-78.12,87.81-97.72,142.58C58.36,1167.62,59.37,1368.99,0,1480.32v1.6c88.6,11.51,175-31.84,251.79-72.23
		c59.92-27.73,64.2-25.68,94.65-67.82c84.68-73.37,107.68-169.15,115.16-263.06c3.37,2.03,4.12,6.23,3.93,10.34
		c7.65,65.54,28.19,128.3,55.98,186.92c-18.61,35.14-9.91,64.1,15.39,88.46c4.83,16.63,12.06,33.18,28.56,41.2
		c1.91-19.34-4.97-50.15,6.39-52.68c102.93,102.98,199.81,106.02,323.9,96C892.02,1441.67,894.65,1432.84,892.98,1424.9z
		 M583.35,765.1c-18.07-9.38-13.17-90.6-17.48-94.14c0.57-3.22,1.98-6.25,2.13-9.54c-2.32-0.2-4.65-0.16-6.95-0.41
		c-1.16-4.71,16.76-14.92,14.58-7.86c-4.41,24.04,8.28,45.85,23.46,63C590.56,731.07,584.42,747.87,583.35,765.1z M339.65,759.26
		c-1.67-1.53-0.58-4.63,1.71-6.92c19.96-30.31,10.64,9.38,9.85,20.67C347.54,768.27,343.85,763.54,339.65,759.26z"/>
	<path class="st1" d="M321.44,393.4c6.97,0.67,14.53,0.53,21.23,2.97c0.87,4.63-7.34,1.16-9.57,4.9
		c-10.27-0.62-13.61,4.33-10.88,13.35c-8.74,40.56,55.92,32.12,39.22-5.42c32,16.74-0.47,51.26-25.33,46.42
		C304.29,451.13,295.53,408.56,321.44,393.4z M565.03,398.59c3.68,0.23,7.7-0.1,10.5,2.78c8.01-0.69,18.21,3.01,12.49,13.73
		c-1.48,8.28,0,14.54-7.27,21.12c-15.81,13.72-43.17-0.62-34.91-23.93c4.39-11.31-12.96,10.01-13.23,13.12
		c4.66,30.53,45.88,43.28,64.65,13.44c11.13-18.28,2.2-53.4-24.29-44.33C570.1,394.88,565.67,395.07,565.03,398.59z"/>
	<path class="st2" d="M308.59,395.88c0.7-0.19,2.12-0.56,2.83-0.75c-34.32,53.51,40.81,90.83,65.25,40.93
		c1.7-4.72,3.69-3.56,5.38,2.3c11.68,33.12,8.98,27.1-15.39,31.66c-43.83,7.17-87.95-16.18-92.27-58.74
		C286.46,407.72,296.8,400.13,308.59,395.88z M538.8,446.99c-3.74-1.73-7.08-16.64-10.44-13.68c-1.61,6.01-12.54,25.67-7.09,32.73
		c44.83,12.07,102.91,3.75,113.42-54.73c-13.35-2.9-23.74-12.79-36.95-16.05C625.88,435.69,576.64,482.96,538.8,446.99z
		 M322.22,414.62c16.42,11.44,23.16-23.08,0.62-10.81C320.28,406.88,321.44,411.1,322.22,414.62z M587.19,418.11
		c4.66-10.73,2.14-17.4-11.66-16.74C568.86,409.08,577.57,421.45,587.19,418.11z M507.94,709.52c11.42-7.08,20.07-17.17,32.58-23.66
		c6.96-4.37,28.48-11.64,19.98-20.3C537.73,671.79,518.64,688.76,507.94,709.52z M440.22,766.71c0.38-8.29,3.6-16.15,5.04-22.96
		c-3.52-0.3-6.25,2.38-9.58,2.93c-5.27-16.9-18.91-34.58-35.24-40.91c-0.4,2.64-0.46,5.33-0.87,7.98
		c-12.05-9.78-24.4-24.44-40.86-27.67C357.11,712.32,393.64,691.23,440.22,766.71z M468.28,746.83c-3.63,0.75-3.39-4.93-6.97-4.62
		c1.54,11.45,0.19,22.96-0.38,34.42c11.14-18.52,21.83-39.08,36.54-55.07c-0.95-3.62,1.2-11.52-2.91-12.09
		C481.74,718.37,473.63,732.47,468.28,746.83z"/>
	<path class="st3" d="M486.39,21.27c59.52-7.9,167.1,36.72,116.42,108.19c-5.9,10.29-11.3,21.44-24.83,20.83
		c-13.3-36.75-60.12-53.05-97.3-53.97C357.53,84.48,231.63,184.9,213.99,228.18c-24.68,58.27-24.17,123.65-56.05,178.24
		c19.73,2.04,37.8-9.79,56.14-11.56c-31.23,41.02-38.49,110.1,6.89,143.31c-11.9-18.51-23.15-54.86-16.77-58.61
		c22.8,60.11,35.87,31.59,39.22,46.64c5.81,40.9,28.56,74.74,58.79,101.89c2.68,3.86,11.54,6.47,4.88,10.79
		c-14,11.61-24.23,26.43-31.35,43.25c-0.34-0.04-1.03-0.12-1.38-0.16c-18.42-25.76-45.38-44.9-68.81-66.21
		c-96.9-85.67-67.46-129.77-52.18-233.35c19.68-100.08,54.49-232.01,108.7-278.36C323.68,51,416.24,24.56,486.39,21.27z
		 M624.24,93.18c-0.21,21.71-10.99,39.2-25.38,55.89c61.51,2.19,84.38,63.22,91.83,118.74c6.88,42.7,0.84,87.96,18.22,128.21
		c-2.14-0.31-6.4-3.69-7.02-0.05c20.94,23.02,29.06,55.7,26.9,86.27c-5.67-18.52-9.02-35.83-16.98-53.18
		c-7.27-20.41-4.3,76.14-49.56,84.27c-1.48,33.25-10.59,67.1-32.98,92.45c1.86,5.87,8.98,8,12.95,12.91
		c5.22,2.77,10.44,19.2,17.26,12.65c106.36-73.17,103.73-192.96,70.56-313.64c-16.53-46.83-37.12-204.83-104.68-225.6
		C625.08,92.37,624.52,92.91,624.24,93.18z M233.15,226.56c-22.74,37.1-27.75,81.42-42.74,121.46c-5.43,15.65-9.97,30.93-19.2,44.71
		c-21.29,21.68,24.4,0.84,36.57-4.24c94.15-53.94,147.81-296.36,332.65-266.23c-8.73-14.13-60.12-19.55-93.08-16.86
		C372.93,109.93,285.49,158.88,233.15,226.56z M231.63,375.57c73.35-38.51,137.44-90.61,201.1-143.71
		c30.49-36.25,39-104.24,104.62-105.17c-1.02-6.62-26.4-3.52-40.82-3.05C372.05,141.81,317.5,291.37,231.63,375.57z M369.09,350.19
		c0.42,0.32,1.26,0.97,1.68,1.3c49.08-22.43,95-52.4,133.19-90.69c22.97-22.36,122.24-141.52,28.37-128.59
		C449.83,136.51,468.18,276.69,369.09,350.19z M570.64,199.37c40.94,35.2,35.21,125.99,121.86,183.4c4.36,3.21,10.15,5.88,6.21-0.09
		c-18.15-31.38-11.67-82.07-22.46-126.58c-9.24-41.32-43.15-106.54-97.86-100.94C577.34,169.37,569.27,187,570.64,199.37z
		 M502.62,328.77c20.2,12.64,54.79-20.27,102.85-6.51c3.3-7.98-34.15-8.48-48.08-7.06C554.58,317.25,479.14,319.29,502.62,328.77z
		 M337.31,325.15c0.37,1.05,61.11,5.42,49.41-3.94c-12.7-1.88-26.44-5.22-38.27-3.74C344.36,319.38,340.59,322.05,337.31,325.15z
		 M665.26,443.28c6.5,3.94,27.76-68.06,10.08-64.21C668.89,399.44,666.22,422.92,665.26,443.28z M660.83,641.29
		c16.25,28.75,23.28,62.62,17.34,94.85c41.31-17.82,64.72-105.34,44.11-144.96C705.06,611.4,684.85,629.5,660.83,641.29z
		 M601.24,690.93c17.9,25.02,43.35,45.74,62.65,69.28c15.95-41.66,1.62-114.14-37.94-150.36l-0.61,0.4
		C597.71,641.14,567.16,631.15,601.24,690.93z M269.12,755.31c-10.28-71.94,36.96-54.26-70.31-126.4
		C194.59,672.44,234.41,718.45,269.12,755.31z M286.04,797.49c29.59-43.73,78.21-70.75,59.62-135.07
		c-10.01-5.96-20.18-17.04-30.3-20.42C285.85,667.51,264.9,747.81,286.04,797.49z M678.26,743.19c-5.68,5.61-7.73,15.44-10.98,23.03
		c9.67,27.25,22.59,58.09,0,86.76c12.95-49.44,9-78.7-40.65-113.63c-18.58-10.87-26.61-43.24-27.67,39.81
		c-1.91,21.14,28.12,22.92,54.91,97.57c14.21-1.58,62.5-46.18,74.46-78.53c11.55-26.42,0.49-56.26-10.45-80.37l-0.63,0.31
		C705.28,728.07,693.9,738.2,678.26,743.19z M228.63,822.65c12.21,15.63,32.44,25.09,62.7,54.52
		c20.24-45.18,71.21-50.78,43.33-114.01c-21.2,15.07-42.36,39.38-58.37,60.79c-1.45-12.69,33.25-24.93-47.97-88.76
		C216.19,747.8,211.38,800.4,228.63,822.65z M642.38,985.12c24.94-57.07,15.65-115.27-37.94-168.04c-0.34-0.06-1.01-0.17-1.35-0.23
		C570.62,884.8,598.83,911.91,642.38,985.12z M318.49,985.99c4.51,20.44,34.01-63.74,0.64-124.4c-8.84,8.01-17.35,17.7-22.87,27.28
		c5.12,10.96,5.8,23.33,6.36,35.23c-11.82-29.2-11.5-49.46-64.5-78.21C228.17,948.78,267.68,913.86,318.49,985.99z M656.95,880.95
		c1.71,39.96,12.95,57.59-11.82,109.4c0.07,2.74,2.08,4,3.85,2.79c45.22-29.17,70.95-90.27,56.98-142.36l-0.69,0.38
		C690.37,862.87,674.5,873.64,656.95,880.95z M611.15,1113.04c-2.88-29.28-12.56-58.22-26.4-84.14
		c-8.9-0.15-15.66,30.64-16.02,47.12c4.31,23.75,23.43,42.9,27.9,66.32c4.55,4.14,11.16,7.29,17.33,5.79
		c17.61-18.42,40.47-40.76,36.8-68.22c-7.44,1.65-14.08,7.06-21.41,9.83c38.35-32.44,61.01-45.84,55.75-109.96
		c-12.42,4.07-23.6,14.43-36.14,19.59c0.46,19.84,10.98,35.31-15.71,61.77c11.94-27.64,18.13-36.33-1.66-76.16
		c-10.26-17.57-19.33-41.59-34.38-53.11C559.78,1016.55,625.51,1022.1,611.15,1113.04z M269.08,1022.17
		c16.01,20.71,38.39,40.26,55.81,58.01c22.22-27.55,32.55-73.13,11.37-103.52c-3.14,8.2-7.38,15.85-12.06,23.25
		c1.95,6.59,3.21,13.36,3.27,20.28c-10.09-34.95-43.45-53.34-71.62-71.47l-0.63,0.45C245.5,964.57,256.53,1000.44,269.08,1022.17z
		 M316.88,1135.53c6.22,7.28,6.53,16.71,17.43,18.38c17,5.55,25.83-50.78,8.45-82.97c-5.7,2.73-12.13,10.61-16.18,14.99
		c4,5.11,13.32,25.45,7.13,32.12c-1.66-19.92-30.56-53.97-54.52-68.3C269.27,1084.34,295.17,1111.07,316.88,1135.53z M581.84,1184.8
		c20.64,9.95,21.85-5.29,28.38-27.57c-6.49,1.06-13.37-2.65-18-3.22C587.31,1163.52,585.18,1174.57,581.84,1184.8z M323.15,1186.68
		c4.88,4.81,13.24,4.11,19.17,2.6c2.48-8.63,2.56-18.81-0.39-27.3c-5.67,2-11.42,0.63-16.71-0.87
		C322.4,1168.5,323.56,1179.34,323.15,1186.68z M535.2,1357.41c-8.29-45.52,3.04-98,36.62-130.76
		c-26.68,42.23-46.91,116.6-12.82,164.66c2.9-13.83-2.09-33.72,9.14-44.49c8.32,5.68,26.29-37.87,32.3-56.85
		c1.47,5.43-2.27,11.52,0.5,16.36c6.11-15.82,5.57-33.33,5.54-50.09c0.46,0.04,1.37,0.11,1.82,0.15
		c4.92,30.31-1.91,62.81-19.38,88.33c5.6,3.49,56.96-54.13,11.02-150.82c-6.74,1.94-13.56,0.76-19.94-1.76
		C564.62,1234.7,488.61,1312.42,535.2,1357.41z M286.18,1325.1c0.55,0.09,1.66,0.27,2.21,0.35c-7.24-23.91-0.64-51.59,16.65-69.56
		c-6.53,45.1,4.53,98.85-27.13,137.15c0.26,0.55,0.79,1.65,1.06,2.2c65.35-25.64,82.85-130.1,63.74-196.99
		c-7.95,1.99-16.05-3.47-22.4-3.1C304.35,1234.98,259.5,1273.95,286.18,1325.1z M358.01,1293.57c9.34,1,5.15-92.75-11.1-95.53
		C357.6,1228.94,358.68,1261.72,358.01,1293.57z"/>
	<path class="st4" d="M566.21,205.34c12.74,12.53,18.71,33.65,25.3,50.61c20.05,61.4,35.48,81.32,75.24,117.15
		c-37.59,179.75,14.64,192.99-135.44,287.91c-28.87,19.18-59.52,48.19-92.43,40.97c-63.35-18.13-133.17-86.02-155.18-117.96
		c-40.17-58.3-31.18-131.41-50.85-196.52c18.25-15.65,47.32-24.09,67.96-39.3c11.26-5.23,18.77-15.21,31.14-17.1
		c16.39,1.05,32.77-1.19,47.88,4.57c-5.79,8.06-13.53,14.4-20.39,21.49C444.51,339.2,525.67,283.08,566.21,205.34z M553.35,311.42
		c-19.66,2.2-42.32,2.64-60.26,12.36c21.12,35.6,84.08-17.83,125.9,5.32C602.19,305.96,575.29,311.47,553.35,311.42z M494.49,345.61
		c-26.71,44.57-47.84,99.35-32.5,152c5.19-85.21,13.58-95.37,33.14-152.65L494.49,345.61z M573.35,366.34
		c-16.36,1.35-41.05,15.8-40.8,27.23c17.52-20.9,52.09-28.05,76.22-15.33c-92.24-7.39-99.39,94.81-87.84,91.34
		c58.36,15.88,111.72,2.35,117.96-58.26c11.88-7.61,19.62-14.83,19.22-28.65C625.8,401.4,605.08,359.2,573.35,366.34z
		 M318.45,367.48c-29.4,7.16-42.1,30.48-71.63,17.33c-4.41,14.24,15.5,21.04,23.61,27.4c5.1,67.53,76.76,73.78,120.1,55.26
		c0.06-64.5-34.9-89.33-88.74-90.21c24.42-9.39,54.3,1.13,73.65,18.66C363.68,377.14,340.97,364.11,318.45,367.48z M608.42,486.29
		c-1.93,0.94-2.26,4.23,0.38,3.48C611.36,489.54,609.85,484.91,608.42,486.29z M509.53,491.55c-1.51,0.71,1.59,5.06,2.5,2.49
		C514.98,492.35,511.32,489.93,509.53,491.55z M567.48,496.44c-1.9,2.85,2.52,4.18,4.71,3.46
		C572.23,497.72,569.13,494.64,567.48,496.44z M337.52,497.41c-1.06,1.2-2.96,2.9-0.33,3.54
		C339.7,502.81,339.14,495.35,337.52,497.41z M305.57,504.59c-3.71,0.77,1.13,5.35,2.57,2.57
		C310.14,505.84,306.89,503.58,305.57,504.59z M618.42,504.56c-2.93,1.52,0.63,2.16,2.31,2.16
		C620.68,505.34,620.01,503.95,618.42,504.56z M588.12,506.29c-2.45,2.17,1.14,4.47,2.92,5.64
		C595.23,510.22,590.78,506.76,588.12,506.29z M361.26,510.28c-0.64,2.93,1.77,2.89,3.61,1.55
		C363.99,510.69,362.6,510.4,361.26,510.28z M276.47,517.48c-2.16,1.51,1.98,3.96,3.22,2.16
		C281.47,517.6,277.88,515.51,276.47,517.48z M390.39,518.13c-0.2,1.9,1.12,2.51,2.82,2.51
		C393.48,519.01,392.09,517.23,390.39,518.13z M348.41,523.46c-1.69,1.05,2.93,3.92,4.73,4.49
		C356.29,525.17,351.2,521.85,348.41,523.46z M614.44,523.28c-1.18,0.77-3.9,3.12-1.02,3.42
		C617.37,528.69,619.47,521.31,614.44,523.28z M570.42,526.47c-1.1,0.15-3.97,2.41-2.08,3.07
		C571.08,532.68,575.63,525.79,570.42,526.47z M484.5,542.41c8.44,15.67-1.21,18.81-7.89,28.59
		C496.68,572.2,500.66,549.25,484.5,542.41z M317.49,545.45c-5.27,2.9,3.43,5.79,4.93,1.57
		C321.18,545.66,319.32,544.62,317.49,545.45z M416.38,545.37c-10.45,4.82-8.96,20.36,2.55,20.89
		C408.48,550.93,420.89,546.73,416.38,545.37z M426.44,559.39c-5.39,4.43,10.45,3.26,13.57,5.77
		C437.46,560.56,431.56,557.57,426.44,559.39z M468.56,562.58c-1.38,0.98-1.96,2.7-2.78,4.12c3.03-1,6.6-1.81,8.24-4.88
		C472.18,561.78,470.13,561.37,468.56,562.58z M531.49,576.4c5.76,21.77-69.59,10.95-78.45,26.79
		c-22.57-13.37-57.9,1.06-77.33-20.29c-5.16,0.75-10.17,2.97-14.19,6.31c2.63,3.06,7.5-1.77,11.56-2.17
		c14.71,5.61,20.14,24.36,33.46,33.42c84.41,59.29,115.31-55.04,139.47-37.5C543.56,577.72,537.09,574.44,531.49,576.4z
		 M358.81,311.56c11.79,0.67,23.23,5.26,34.06,5.03c11.72-16.62,20.58-34.57,29.11-53.1c0.66-2.28-0.14-3.13-1.65-2.03
		C401.27,279.13,376.66,294.02,358.81,311.56z M674.65,437.56c-10.02,12.25-12.13,17.32-10.3,38.34
		c27.41-9.89,8.18-47.2,26.03-64.03c-14.42,27.97,13.84,52.38-25.81,68.72c-0.44,4.96-1.05,9.95-1.18,14.93
		c20.62,7.57,59.5-83.14,24.82-104.21C684.54,406.73,683.29,423.36,674.65,437.56z M214.61,412.03
		c10.86,19.81,3.12,43.06,9.66,62.11c-23.79-12.66,3.97-24.91-13.26-53.75c-5.6,16.52-11.77,28.74,0.07,50.48
		c6.88,13.52,12.96,30.47,26.95,37.11c3.59,1.31-4.87-72.95-15.05-112.56c-0.39,0.25-1.17,0.74-1.56,0.99
		C218.17,401.01,215.72,406.52,214.61,412.03z M356.52,678.45c4.65,1.89,9.47,4.22,14.53,4.52c1.3-5.24-12.44-13.28-17.68-14.48
		C353.1,671.93,354.62,675.64,356.52,678.45z M414.38,706.54c12.65,8.36,18.68,21.11,23.66,35.32c26.38,1.22,0.94-3.26,12.77,58.66
		c0.08,3.01,1.23,5.11,3.52,3.99c4.53-12.98-6.19-19.2,2.87-50.8c3.2-8.2-5.63-27.92,9.9-12.8c6.21-16.31,13.62-34.71,32.67-39.01
		c0.07,2.51-0.86,5.15,0.21,7.57c6.89-7.87,12.9-18.24,20.07-25.72c-0.66,0.17-2,0.51-2.67,0.68
		C482,708.42,464.09,722.54,414.38,706.54z M396.08,706.17c2.12-2.62-0.82-5.06-1.91-7.39c10.43-1.27-7.71-10.24-11.9-11.49
		C377.81,690.01,392.49,700.46,396.08,706.17z"/>
	<path class="st5" d="M514.32,593.13c2.58-1.47,2.1,0.85,1.69,2.66c-52.9,24.64-80.44,23.12-123.09,3.49
		c46.94,31.44,83.83,16.1,118.31,1.79c-29.54,38.69-102.61,37.61-124.62-7.55c28.64,11.39,47.84,9.66,68.31,12.61
		C473.67,597.57,494.9,599.16,514.32,593.13z M461.87,883.06c10.24,0.02,19.41-2.39,29.81-0.56c7.36,1.29,12.14,6.17,18.95,2.5
		c35.03-20.94,61.23-57.86,73.49-95.91c-2.23-2.91-4.11-7.61-7.94-8.24c-22.73,39.84-55.63,79.91-100.89,93.15
		c-4.42-69.51,16.18-133.02,84.92-173.84c1.95-5.18,2.21-10.94,1.77-16.42c-1.31-0.29-2.53-0.16-3.67,0.4
		C487.64,732.84,455.5,788.28,461.87,883.06z M359.87,723.92c53.41,25.82,75.01,88.2,77.69,144.92
		c6.14,14.07-42.51-14.66-48.66-20.32c-13.24-7.78-23.19-22.81-35.63-29.65c-21.57,12.79,42.44,60.61,62.71,67.42
		c11.99-4.76,19.33-5.5,33.15,2.1c4.66-69.09-18.34-153.98-88.11-181.63C360.56,712.46,359.21,718.19,359.87,723.92z M532.53,885.62
		c-3.65,5.87,6.64-1.09,7.17,3.55c0.42,7.06-0.69,14.3,1.47,21.2c23.06-15.63,28.56,25.27,2.57,20.46c-0.3,3.5,1.22,6.94,0.65,10.43
		c-6.36,4.29-28.39-6.59-22.81,5.96c-19.27,15.96-18.83,49.79,6.11,60.97c-21.47,14.33-22.79,48.41,3.13,60.63
		c-19.96,16.62-17.17,47.65,7.09,60.04c-19.44,18.72-15.19,49.89,13.63,60.17c-7.97,12.13-8.65,28.21-2.36,41.07
		c15.01-0.03-11.51-26.19,25.48-42.07c2.55-1.68,2.02-5.88,0.29-7.26c-39.6,14.05-53.56-43.48-12.58-51.61
		c3.51,6.65,5.44,43.23,14.54,49.16c2.11-15.58,8.48-29.43,10.4-44.17c-4.71-14.31-51.89-65.37-6.25-108.36
		c0.04-17.41-31.01-37.6,11.92-98.3c7.69-13.21-39.87-21.69,8.06-114.55c-3.67-4.23-6.61-10.02-11.85-12.32
		C583.99,835.7,559.67,864.44,532.53,885.62z M547.56,949.31c-0.06,17.66,2.33,35.38,2.72,52.9c-35.91,7.97-46.13-43.6-9.87-52.4
		C542.78,949.49,545.17,949.26,547.56,949.31z M551.24,1009.76c0.34,17.77,4.76,36.56,2.85,53.31c-36.22,7.1-45.2-45.22-7.59-53.48
		C548.05,1009.19,549.73,1009.08,551.24,1009.76z M556.75,1074.36c-0.37,15.66,3.6,30.06,4.08,45.23
		c-26.83,18.24-52.95-37.42-11.35-49.95C553.84,1068.14,556.36,1070.85,556.75,1074.36z M338.8,971.92
		c31.2,21.11,23.67,59.57,6.93,91.08c12.77,26.77,24.03,53.49,2.25,85.1c5.58,15.23,1.33,30.5,0.08,46.26
		c0.92,2.43,3.83,1.16,4.68-0.93c1.11-13.18,36.99,11.09,19.55,38.06c-15.17,29.06,28.92-2.41,6.81-41.79
		c25.33-9.05,34.99-39.32,12.82-59.5c22.6-10.84,28.71-45.05,7.34-59.96c23.03-12.24,27.82-43.44,3.79-60.45
		c27.16-16.68,26.9-56.63-7.53-65.86c-16.22,1.01-3.61-6.37-16.52-12.31c-25.1,17.81-25.01-33.34,0.86-15.51
		c14.5-10.56,4.61-15.82,12.44-28.91c-23.54-8.59-37.02-33.08-52.05-49.22C299.27,870.08,366.85,865.57,338.8,971.92z
		 M380.39,1003.37c0.1-17.5,1.29-36.56,2.98-53.09C421.45,949.65,423.62,1009.42,380.39,1003.37z M375.81,1063.13
		c0.7-17.07,0.85-36.82,4.69-52.59C418.29,1011.72,417.15,1072.05,375.81,1063.13z M369.29,1121.62
		c1.97-17.07,4.05-34.15,5.14-51.34C414.05,1069.53,410.91,1135.14,369.29,1121.62z M355.53,1180.61
		c5.19-16.47,7.84-34.04,12.87-50.31C406.87,1135.88,394.94,1199.3,355.53,1180.61z M69.87,1269.15
		c-7.34,37.39-14.45,73.21-23.64,110.39c-5.2,15.34,5.03,6.84,13.06,8.17c6.77,34.35-31.14,27.82-25.18,42.4
		c13.09-3.02,24.47-11.38,31.64-22.68c18.21,22.13,54.17,15.07,66.98-11.12c22.72,16.61,57.51,3.27,63-24.11
		c24.33,8.43,53.88-6.12,57.21-32.44c3.73,0.07,37.76-2.48,29.79-12.72c-8.29-1.53-18.96,20.48-41.45-6.06
		c8.16-9.08,18.66-15.89,26.51-25.29c-0.65-18.14,3.34-34.82,12.9-49.83c14.31-27.15,43.02-42.09,37.18-78.58
		c5.12-52.63-76.62-30.32-45.33-120.46c7.46-10.4-50.51-27.86-22.68-102.72c-16.95-15.73-31.79-31.48-28.15-61.88
		c0.29-2.61-0.9-4.22-3.34-3.05C129.35,937.86,93.58,1152.25,69.87,1269.15z M235.58,1325.2c20.48,32.14-29.05,66.46-46.13,25.95
		c14.81-8.26,29.36-17.13,44.11-25.51C234.06,1325.53,235.07,1325.31,235.58,1325.2z M180.62,1355.21
		c16.67,34.73-41.58,60.46-49.39,17.34c15.63-6,31.79-10.6,47.34-16.86C179.08,1355.57,180.11,1355.33,180.62,1355.21z
		 M121.8,1386.81c-2.03,30.51-51.62,37.29-52.03,0.02c15.44-4.22,31.43-6.58,46.83-11.11
		C123.49,1374.29,121.63,1382.33,121.8,1386.81z M688.76,976.11c14.73,47.95,6.6,62.54-33,100.93c6.92,26.98-0.46,46.6-29.79,65.69
		c-9.54,14.32-16,32.73-20.14,49.26c14.34,30.52,23.61,64.59,22.14,97.79c11.36,9.57,24.17,17.35,35.97,26.34
		c-10.37,19.2-31.56,20.23-46.82,2.61c-11.67,10.71,23.41,24.38,38.44,19.59c2.61,25.59,33.91,42.4,57,32
		c7.54,25.93,42.71,41.78,63.66,21.8c13.08,25.71,46.04,33.59,67.51,11.14c8.81,12.41,27.6,23.71,42.53,16.66
		c0.29-2.73-0.75-5.51-2.29-7.7c-18.97,4.92-37.59-11.18-35.3-30.53c9.67-1.06,19.73-0.39,29.52,0.26
		c-17.22-95.85-36.65-190.25-58.91-285.22c-14.15-48.67-33.17-179.87-99.49-213.11C724.43,923.23,719.34,939.94,688.76,976.11z
		 M716.75,1344.35c-14.01,38.56-66.36,11.73-47.2-25.06C685.03,1327.7,702.19,1335.76,716.75,1344.35z M726.91,1351.1
		c16.21,5.52,32.52,10.96,48.78,16.24c-1.56,39.87-64.34,23.72-49.1-15.73L726.91,1351.1z M837.27,1379.82
		c1.91,37.82-57.95,34.38-51.9-8.61C802.76,1372.78,820,1377.05,837.27,1379.82z M443.77,919.2c4.21,3.68,10.52,7.92,14.86,10.83
		c3.1-4.29,7.01-7.79,11.68-10.29c-4.6-3.01-11.7-10.94-15.95-11.67C451.51,912.43,447.9,916.05,443.77,919.2z M443.01,957.03
		c1.35,107.87-0.38,209.63-68.37,310.84c-6.06,8.22-5.1,15.94-9.68,24.89c-5.45,9.33-10.07,9.77-11.13,24.64
		c62.4-52.65,95.79-168.22,99.59-265.2c3.14-31.57,2.41-64.08,1.75-95.2c0.08-2.47-0.38-5.93-2.74-4.7
		C449.28,953.86,445.99,955.18,443.01,957.03z M487.28,1144.98c8.59,39.52,20.98,79.06,38.28,115.49
		c3.38,8.96,11.56-8.39,13.42-12.34c-42.4-90.08-50.84-192.2-58.46-289.57c-4.59-0.84-9.13-1.8-13.66-2.91
		C466.84,1019.1,474.37,1082.54,487.28,1144.98z M294.42,1323.53c4.62-18.01,6.42-36.66,6.56-55.2c-0.74,0.09-2.21,0.28-2.94,0.37
		C294.5,1272.86,283.73,1320.62,294.42,1323.53z M580.77,1343.06c3.82,9.71,12.07-7.33,11.43-12.39c-0.5,0.12-1.49,0.37-1.99,0.49
		C586.58,1334.64,583.85,1339.07,580.77,1343.06z M587.85,1349.23c69.2,85.46,198.36,110.83,303.05,92.72
		c-0.18-2.58-0.64-5.14-1.39-7.59c-108.59,8.26-202.81-8.23-289.24-94.09C595.89,1342.88,592.34,1346.72,587.85,1349.23z
		 M22.47,1457.44c-5.66,9.51-7.96,14.83-12.79,20.67c74.75-3.87,160.2-35.14,231.75-74.97c20.25-14.01,41.98-14.93,45.93-49.6
		c-0.76,0.19-2.26,0.56-3.02,0.75C206.74,1408.13,116.84,1448.24,22.47,1457.44z"/>
	<path class="st6" d="M473.32,886.36c23.42-0.32,47.92,13.27,66.82,27.43c6.74-3.91,10.1-6.68,16.69-0.54
		c3.24,13.49-7.84,18.13-16.83,10.07c-58.17,47.11-91.2,27.08-66.92-5.43C457.46,908.47,455.26,891.16,473.32,886.36z
		 M379.53,919.31c-13.75-14.69-25.93,15.05-6.37,12.85c11.13-9.39,7.08,5.16,53.87,18.37c23.18,7.41,39.54-14.12,12.86-30.7
		c15.61-13.81,8.03-33.71-14.54-29.6C407.26,894.37,392.75,906.98,379.53,919.31z"/>
	<path class="st7" d="M529.27,891.25c10.81-3.99,7.9,7.14,7.83,14.26c-5.46-1.97-9.78-6.17-14.25-9.71
		C522.93,892.81,527.06,892.38,529.27,891.25z M390.85,901.24c4.37,0.96,8.02-3.24,9.47-6.92c-2.44-0.9-4.91-1.68-7.46-2.18
		C391.03,894.79,390.64,898.1,390.85,901.24z M527.7,938.75c4.72,1.21,9.65,2.29,14.53,1.46c-0.4-4.52-0.78-9.04-1.18-13.55
		c-0.67,0.1-2.02,0.3-2.69,0.4C535.56,931.66,529.41,933.65,527.7,938.75z M484.61,963.13c7.59,94.16,17.88,190.66,58.27,276.77
		c14.75-1.86-15.35-13.97,2.34-49.74c-25.77-12.2-31.9-34.45-12.88-59.95c-18.8-17.16-28.86-36.01-8.1-60.22
		c-22.11-18.03-23.74-41.11-0.82-61.9c-20.09-6.36-26.72-38.78-12.01-55.18c2.09-2.64,2.49-5.55-1.15-3.78
		C505.89,954.6,484.7,955.23,484.61,963.13z M547.56,1000.54c0.34-16.03-3.15-33.41-3.42-48.77c-1.33-0.09-2.65-0.02-3.95,0.22
		C511.85,957.71,516.69,1005.51,547.56,1000.54z M382.86,1001.21c31.04,5.43,36.39-46.49,4.2-48.43
		C384.31,968.11,383.31,985.76,382.86,1001.21z M409.76,1007.56c-2.73,0.59-2.21,3.67-0.58,4.31c19.2,15.38,18.72,42.86-3.14,58.19
		c17.75,18.74,16.54,44.74-9.31,60.02c17.94,21.07,15.78,46.98-12.96,61.12c8.78,18.58,8.8,38.4-9.96,54.53
		c-3.35,2.72-1.88,8.12-1.98,11.45c41.56-43.12,62.24-152.32,66.14-227.54c0.3-23.24,0.75-47.84,0.05-70.64
		c-2.95-4.1-13.04-2.26-17.49-3.33C430.46,972.42,428.88,998.2,409.76,1007.56z M552.27,1059.06c-1.81-3.53,0.26-44.55-5.96-46.91
		C513.4,1015.69,524.25,1072.07,552.27,1059.06z M378.32,1061.68c30.99,5.93,37.36-47.25,3.77-47.83
		C378.89,1028.68,379.63,1047.34,378.32,1061.68z M557.82,1119.33c0.41-13.99-3.86-27.86-3.9-41.22c-0.21-3.37-1.22-7.84-4.69-6.11
		C519.96,1077.71,528.55,1129.02,557.82,1119.33z M371.94,1119.95c29.89,10.69,40.45-44.91,5.01-47.16
		C375.34,1088.49,373.71,1104.23,371.94,1119.95z M571.41,1180.04c-2.47-2.97-6.77-50.27-15.2-47.01
		C529.86,1144.67,539.9,1186.47,571.41,1180.04z M358.68,1181.14c31.56,8.16,44.01-42.48,11.47-47.23
		C365.91,1149.01,361.91,1165.91,358.68,1181.14z M558.05,1219.46c1.45-1.98,22.88-27.35,14.19-28.35
		C561.16,1194.86,553.12,1208.31,558.05,1219.46z M368.07,1230.48c11.35-10.8,4.8-37.41-11.86-37.5
		C349.64,1199.32,361.78,1212.56,368.07,1230.48z M620.12,1315.4c7.4,14.89,35.51,18.6,39.96,0.85
		c-10.89-6.9-22.46-18.36-33.83-22.35C625.11,1301.33,619.68,1308.66,620.12,1315.4z M244.75,1321.96
		c6.66,11.25,25.97,11.14,33.48,0.99c-3.08-2.71-7.24-22.81-11.84-21.73C258.63,1307.37,250.59,1314.38,244.75,1321.96z
		 M713.33,1345.61c-12.94-7.9-28.61-15.57-42.28-21.98C654.19,1349.25,702.1,1377.84,713.33,1345.61z M193.03,1351.42
		c7.72,33.01,62.04,3.21,40.2-22.21C219.54,1336.01,206.91,1344.92,193.03,1351.42z M614.44,1345.25
		c70.78,70.95,172.47,91.87,271.43,84.67c9.61-12.93-24,5.65-40.21-19.89c-3.76-3.52-6.67,3.11-10.67,4.77
		c-20.01,14.04-49.55,4.7-59.2-17.1c-21.78,17.85-57.85,3.8-63.96-22.83c-24.32,6.62-55.43-4.11-57.41-32.45
		c-17.92-2.12-23.26,1.54-43.11-13.34C601.74,1334.26,609.04,1339.96,614.44,1345.25z M255.65,1341.83
		c-5.82,23.94-22.4,40.96-51.65,35.81c-13.59-5.23-2.21,12.3-27.67,25.93c-14.03,8.55-30.16,4.45-43.11-1.73
		c-11.11,25.66-47.24,31.91-67.01,11.01c-7.48,10.65-19.64,19.07-32.22,20.97c-4.97,0.95-8.34,12.72-9.2,18.3
		c55.84-1.07,212.57-56.83,267.26-114.06c-1.04-1.5-2.84-3.15-4.7-1.82C277.9,1342.29,266.13,1341.53,255.65,1341.83z
		 M774.44,1371.01c-12.41-8.06-31.5-10.3-45.57-16.06C715.73,1382.12,763.45,1402.4,774.44,1371.01z M133.67,1375.07
		c5.66,24.99,43.98,20.68,47.2-5.07c0.36-5.29-0.29-12.65-6.59-9.8C161.02,1365.89,146.52,1368.66,133.67,1375.07z M835.03,1382.02
		c-14.78-2.97-32.17-6.2-47.2-7.25C780.84,1405.34,835.1,1414.67,835.03,1382.02z M72.28,1388.86c-2.04,8.37,7.67,17.97,15.73,19.3
		c16.25,3.22,34.22-8.76,31.34-26.34c0.01-3.69-2.46-2.68-4.08-2.72C101.14,1383.11,85.58,1384.54,72.28,1388.86z M883.11,1407.99
		c0.33-7.3-2.68-14.36-3.62-21.57c-8.91-1.45-18.22-3.65-27.34-2.33C846.89,1399.82,868.41,1414.18,883.11,1407.99z M37.73,1417.33
		c11.06-0.25,25.84-18.11,17.6-27.04C43.35,1393.38,41.87,1386.44,37.73,1417.33z"/>
</g>
</svg>
