<?xml version="1.0" encoding="utf-8"?>
<!-- Generator: Adobe Illustrator 24.0.1, SVG Export Plug-In . SVG Version: 6.00 Build 0)  -->
<svg version="1.1" id="Layer_1" xmlns="http://www.w3.org/2000/svg" xmlns:xlink="http://www.w3.org/1999/xlink" x="0px" y="0px"
	 viewBox="0 0 720 720" style="enable-background:new 0 0 720 720;" xml:space="preserve">
<style type="text/css">
	.st0{fill:#111112;}
	.st1{fill:#64BF7C;}
	.st2{fill:#FFFFFF;}
	.st3{fill:#845239;}
	.st4{fill:#EA7E3A;}
	.st5{fill:#C65C8B;}
	.st6{fill:#F081B2;}
	.st7{fill:#424240;}
</style>
<g>
	<g>
		<path class="st0" d="M667.8,594.3c-2,1.5-3.4,4.4-6.3,4.1c-10-17.8-9.1-13.4-18.4-7c-8.2,4.8-28.4,19.9-30.2,8
			c12.2-15.3,25.9-31.4,31.4-50.8c7.4-29.1,7.2-60.3,3.1-89.9c-4.4-43.2-17.6-65.8-48.9-81.2c-32-18.3-73-18.9-108.7-13.5
			c-18.5,2.8-35.8,9.2-51.2,19.8c-4.6,3.1-39.6,36.8-41.2,36.1c-2.9-1.3-0.9-4.8-0.7-7.9c2.1-24.8,3.9-47.8,3.3-72.6
			c-2.8-49.6-15.2-117.2-56.5-137.5c6.5-18.8,17.5-37.3,19.7-57.2c20.3-30.6,40.9-56.7,46.6-71.1c9.1-22.1,26.5-51.6,3.9-40.6
			c-4.4,7.8-4.1,19.3-9.8,26.2c-0.3-4.5-1.2-8.9-2.2-13.3c-5.3-1.8-10.4,2.4-14.5,5.4c8.1,9.4,11.9,24.3,2.8,34.8
			c-8.3,12.2-16,24.2-25.5,35.1c-1.5-10.6,1.4-22,0.1-33c-6.3-21.2-19.6-39.8-29.4-59.5c-1.5-3-2.3-5-6.4-5.2
			c-4.3-0.8-15-1.4-12,3.2c5.9,10.5,13.2,19.5,20,29c-2.7,1-6.2-0.4-9.1,0.3c0,3.6,3,6.1,3.4,9.6c16.9,0.9,17.6,12.2,22.4,23.2
			c1,15.4-1.8,31.5-2,47.4c-5.5,12.7-19.1,33.7-21.3,33.3c0.1-43.8-33.8-78.8-48.7-83.5c0,3.5-1.8,7-1.1,10.4
			c7.8,6.1,16.4,12.3,20.9,21.4c-14,0.9-30-3.2-39.2,4.9c0.1,2,0.5,4.1,1.4,6c14.7-0.9,30.4-2.2,45.2,1.1
			c13.3,23.4,10.2,40.5,13.4,60.7c-29.3-11.4-48.1-11.5-70.9,5.5c-18,21.8-19.6,65.4-37,82.6c-6,7.2-12.6,3.2-18.9,4.2
			c-9.9-0.1-19.4,2.4-28.9,5.5c-17.2,5.7-33.1,15.3-50.3,21.8c-10.2,4.2-42,14.6-31.5,26.8c15.5,4.9,32.9,1.4,37.6,5
			c-46.3,68.3-5.1,51.2-6.5,62.5c-0.8,6.4-0.3,13.9,1.2,20.1c1.9,8,5.4,13.4,12.8,17.1c5,2.5,10.5,3.9,16,4.9
			c5.1,0.9,9.5,0.9,13.3,4.8c52.5,53.9,91,72.6,150.7,84c1.4,2.2,0.7,5.1,0.7,7.6c-11,9.5-16.6-3.6-22.9-9.4
			c-18.2,2.4-8.8,7.8-9,11.3c-4.3,0.3-8.2-2.8-12.3-3.7c-5.7,18.8,2.9,10.6,7.2,15.8c-6.1,2.5-14.1-0.7-20.7-0.4
			c-0.4,4.4,2.6,12.1,6,13.7c9.9,1.2,19.5-0.9,28.9-3.9c-0.7,1.9-3.2,3.1-3.2,5.1c4.6,2.3,11,7.6,15.7,6.3
			c4.6-6.3,8.1-13.8,14.7-17.9c4.8,11.1,15,18.5,22.3,27.6c7.4,30.2,43.4,35.2,53.4,27.3c44,3.6,49.2-20.3,56.3-10.8
			c-0.9,13,5.9,16.5,13.1,23c-0.9,11.2-6.2,24.6-1.9,35.4c16.6,24.5,50.3,19.4,75.3,15.5c6,12.1,27.6,12.5,36.9,12.9
			c26.5,0.5,58.6-8.6,70.5-30.6c2.7-6.9-3.4-13.9-4.4-20.7c8.7,2.8,14.4,12.2,22.3,15.5c5.3-5.5,9.4-12.4,10.5-20
			c-5.9-3.9-13.8-6.1-20.7-9c0.1-0.2,0.2-0.6,0.3-0.9c12.8-4,27-5.3,22.4-20.5C670.7,601.3,671,597.3,667.8,594.3z"/>
		<path class="st0" d="M238.4,592.6c-32.3,17.2-56.4,46.2-78.3,75c1.1-16.8,10.7-26,18-36.6c16.6-25.7,37.3-48.9,49.2-77.2
			c1.1-0.4,2-3.9,0.5-3.5c-26,15.9-47,39.4-62.9,65.2c-0.7-15.7,1.9-32.3,1.4-48.4c-15.7,26.1-19.7,57.7-21.1,87.9
			c-47-85.5-8.7-61.8,16-96.4c12.6-16.9,11.6-34.2,5.5-51.7c0.8-21-8.1-27.1-24.5-17.6c-1.9,0.8-1.8-1-2.5-2.8
			c-6.1-18.7-21.1-4.9-28.5,3.4c-0.9-2.8,1.2-5.9,0-8.8c-12.1,0-24.1,15.5-28,23c-16.8,29,4.9,59.8,21.8,83.2
			c7.6,26.3,15.3,53.5,29.2,77.7c-23.9-15.6-51.3-39.1-58.4-69.3c-7.1-36.5-3.2-74.4-2-111.3c-9.8,19.5-13.2,42.1-14.4,63.8
			c-10.8,70,35.3,98.8,79.5,137.4c-13,0-25.7,1.7-38.7,4.1c-10,8.2,31.6,7,33.8,6.8c23.8-0.1,47.1,0.1,70.9-0.1
			c-2.5-6.7-10.7-4.7-16-6.1c1.4-2.7,0-5.2-3.1-4.8c19.2-13.4,4.8-10.9-6.9-7.8c-4.1,0.7-8.6,6-10.8,4.3
			c19.6-34.5,68.7-83.4,78.5-91.1C243.6,589.8,240.9,591.6,238.4,592.6z"/>
	</g>
	<path class="st1" d="M69.8,498.2c-0.5,33.2-6.4,72.2,4,106.1c10.8,32,46.2,54.9,67.7,70.3c-7.6-16.1-26.5-56.1-21.4-55.9
		c9.6,5.6,11.6,20.1,17.2,29.8c11.5,24.4,11.5,18.3,8.3,31.8c4.2-5.7,6.7-14,11.9-19.4c-9,40.5-2.5,18.7,10,2.3
		c20.3-26.3,49.6-56.8,70.9-68.4c-31.6,28.1-68.7,69.2-73.7,89.5c7.6,2,17-6.3,25.5-6c-4.3,5.3-21.5,12.2-4.5,10.7
		c-0.2,1.9-3.3,1.9-3,4.1c6,0.7,12.2-0.5,18,1.3c-42.9,0-90,1.7-99.5-2.6c14.2-3,28.8-2.7,43-4.7C62.4,615.2,48.3,604.1,69.8,498.2z
		 M151.2,665.6c18.7-38.6,54.4-73,72.2-109C187.8,584,164.3,612.5,151.2,665.6z M148.3,663.1c4.7-18.9,13.3-36.3,13.5-59.3
		c0.8-6.6,0.5-13.2,1.3-19.6c0.6-2.6,1.4-5.9-0.1-6.7C153.7,605,148.5,634.2,148.3,663.1z M118,617c4.6-2,4-0.1,7.2,2.8
		c-3.7-10.7-9.8-25.9-0.4-35.1c-0.4-0.9-0.8-1.8-1.1-2.7c-2.5,1.1-4.9,2.9-7.7,2.4c0.7-1.6,2.5-2.3,3-3.9c-3.6,1.4-5.1,3-8.7,0.1
		C104.9,583.4,113.8,605.1,118,617z"/>
	<path class="st2" d="M281.1,187.3l0.5-0.1c-3.1,6.2-8.4,13.5-6.1,21c6.6,10.1,15.7,18.5,24.7,26.6c8.1,9.9,13.9,21.1,20.8,31.7
		c-7.7-47.4-26.3-50.2-37.3-79.1c24.3-4,68.5,25.3,77.6,35.1c16.4,19.3,21.7,45.2,27.1,69.4c9.1,42.4,5.6,85,2.4,127.7
		c-2,40,6.2,40.9,2.8,56.2c-2.7,22.8-22.9,61.3-42.1,60.3c-84.1-3.9-137.5-33.9-189.6-85.9c5.8-1.7,13.4,0.8,19.4-1.8
		c6.6-3.2,5.5-24.7,6.4-28.3c20,0.6,40.3-6.2,47.7-25.6c-21.9,26.3-47,22-74,15.7c-19.8-5-39.5-7.9-57.1-17.6
		c-3.4-8.5,12-32.2,13.4-35.9c3.6-5,6.8-14,11.6-13.7c17.4,2,34.7,4.2,52.2,3.8c18.3,0.5,81.1-13.3,78.1-27.2
		c4.5,4.5,8.9,11.8,15.4,13.8c9.6,1.8,30.8-1.5,33.1-6.4c-35.3,8.6-39.9,2.4-53.8-24.8c-11.8-8.8-26.5-13.5-40.8-17.3
		c6.8-4.2,10.2-12.4,14.1-18.8c1,9.2-2.8,9.5-3.8,14c3.4,12.6,27.1,16,35.2,15.7c4.5,9.2,15.9,9.6,24.9,11.4
		c21.1,2.2,22.1,1.7,27.6-13.7c11.4-33.3-19-58.5-29.4-54.2c0.5,0.8,1.5,1.1,2.2,1.7c-6,2.5-11,6.6-15.3,11.4
		c-0.5-11.8-13.4-25-24.8-17.7c8.9,0.3-0.1,2.4-2.3,4.8c-4.4,2.5-6.5,8.3-9.5,10.2c9.4-39.3,42.2-24.9,39.8-59.9
		C275,188.5,278.1,188.1,281.1,187.3z M246.4,211.2c7.1-5.9,14.9-12.4,20.7-19.1l-0.7,0.3C257.6,196,249.9,202.3,246.4,211.2z
		 M231,278.4c5.8,8.9,18.1,14.3,28.5,12.9c0.1-11.4,1.2-22.5,6.4-33c1.6-6.7-5.7-20.6-14-21.7C238.9,243.7,229.1,262.5,231,278.4z
		 M263.5,289.8c3.1,8.6,19.6,12.9,32,14.5c3.9,0,7.4,1,9-3c7.1-14.8,8-33.5-4-46.2c-2.9-2.8-8.8-12.1-13.8-11.6
		C270.3,252,262.8,271.7,263.5,289.8z M420.1,403.1c-4.2,5.2-27.1,19.4-24.4,29.9c17.2,0.1,37.3,1.6,50.1,14.7
		c18.4,20.2,44.5,57.4,34.7,91.4c17.8,16.7,39.6,28.5,60.2,41.1c13.8,10.9,24.7,28.8,55.9,27c43.1-38.6,51.3-69.4,46.9-135.3
		c-3.7-33.1-5.9-68-41.2-87c-24.9-15.3-55.2-21.6-84-19.4C479.3,367.7,457.6,370,420.1,403.1z M158.1,445.3
		c25.9,2.7,23,3.6,25.4-25.9c-21.5-2.5-43-9.1-63.6-14.5C118.8,432.1,118.9,438.6,158.1,445.3z M396,437.4
		c-3,20,14.5,31.6-11.9,78.1c-19.6,30.4-31.5,27.4-70.1,22.2c1.7,16,5.8,30,21.8,42.9c-0.7-10.8,11.8-9.6,19.5-9.6
		c12.6-2.5,41.1,24.3,37.3,41c35.8,4.2,61.4-20.2,76.3-53.1c-2.8-3.8-36.6-17.7-37.6-26.3c-0.4-8.1,3.7-17,10.6-21.3
		c5.3-2.1,22.8,15.1,35.2,24.8c7.2-24.9-9.3-51.4-24.9-74.5c-12.9-19.6-26.3-24.3-55.7-24.2L396,437.4z M449.8,595.8
		c-1.4,1.5-4.8,3.6-1.4,5c9-16.1,70.1-11.3,61.6,21.8c12.3,1.1,25.1,1,36.8,4.8c5,1.8-2.4,10.8,27-4.4
		c-15.6-7.7-31.6-14.8-46.6-23.7c-14.8-16.7-35.5-26.5-54-38.3C466.8,573.4,459.8,585.9,449.8,595.8z M604.3,607.7
		c2.4,0,4.8-0.4,6.8-1.9c-0.6-0.9-1.3-3.2-2.6-2.4C606.9,604.7,605.3,606,604.3,607.7z M549,638.2c-3.6,3.8-6.8,8.7-11.3,11.2
		c-0.7,11.7-6.7,32,9.6,35c27.9,6.6,65.9,1.7,87.6-21.9c4.7-5.1-2.2-18.1-6.4-26.2c-8-0.9-17.4-2.5-24.9-2.3
		c4.4,6.2,9.5,12,14.1,18.1c-3.4,4.1-18.4,11.6-24.8,6.8c-0.6-2.6-8.7-30.9-15.5-32C568.4,631.9,559,635.6,549,638.2z M461.1,661.5
		c13,18.2,48.9,19.5,71.2,13c-0.3-7.8,0-16,0.2-23.5c-14.8-1.6-31.6-3.3-40.5-16.9c-8.7,0.2-18.8-0.2-27-2.8
		C463,635.1,459.2,653.2,461.1,661.5z"/>
	<path class="st3" d="M320.2,26.6c10.1-0.7,10.3,0.6,14.2,8c9.4,18.8,20.6,35.4,26.8,55c0.8,65.9-6.1,75-21.7,110.3
		c-6.2-0.5-1.1-6.3-0.2-10c4.8-12.9,11.2-24,14-37.3c1.6-20.9,1.7-40.2,3.7-60.8c-11.6-40.5-18.9-19.1-26-32.9
		c4.1-0.6,7.7,1.8,11.6,1.9C336.9,49.2,326.6,38.3,320.2,26.6z M404.4,69.3c-1.7,2.8-0.7,8.7-3.8,9.3c-1.6-5.8,4.9-39.2-9-26.9
		c11.9,26.2,8.1,26.4-14,57.5c-6.6,10.2-15,15-14.8,30c22.2-33.3,41.1-53.2,57.8-101c1.3-2.9,1.2-5.4-1.8-4.6
		C414.7,34.4,411,53,404.4,69.3z M305.7,121.6c-2.4-0.1-43.4-4.8-40.2,5.3c15.3-3,31.9-2.6,46.5,2.1c4.8,16.2,9.3,12.8,12.7,54.9
		c0.9,3.4-0.7,9.5,3.5,10c-0.7-19.1,0.1-39.7-6.9-57.8c-10-17.2-21.2-34.8-37.7-46.2C280,99.6,300.6,102.7,305.7,121.6z
		 M331.1,176.3c-0.6,3.2,0.3,6.7,0.1,10.1c8.1-12,18.6-25.3,19.1-40.2c-0.1,0.2-0.4,0.5-0.5,0.6
		C343.9,156.9,337.8,166.8,331.1,176.3z M332.2,196.7c0.8-1,8-11.9,4.1-12C333.7,187.9,330.2,192.5,332.2,196.7z M304.9,234.6
		c4.6,5.7,6.4,13.1,10.8,18.3c-6.1-22.3-25-39.9-33.4-59.9C271.7,208.2,289,216.2,304.9,234.6z M241.5,225.1
		c10.3-9.9,26.7-12.9,28.2-30.6c-0.2,0.2-0.5,0.5-0.6,0.6C261.3,206.3,245.4,211.9,241.5,225.1z M435.7,533.5
		c30.9,20.4,66.4,34.4,92.8,60.8c3.4,3,7.4,4.5,11.2,6.6c14,7.7,28.5,13.6,42.1,22.2c7.1,8,10.5,19.1,13.7,29.1
		c-1,8.2,11.7,1.9,16.4-0.3c-3.8-6.2-8.8-11.9-12.3-18.4c-1.3-2.9-6.4-1.7-6.8-5c28.1,5.2,35.7-5.1,65.1,23.5
		c14.7-18.3,7.4-13.1-21.7-25.1c-2.9-1.7-8.3-1.7-9.1-4.7c9.2,0.6,10.7,5.5,28-0.9c11.9-3.7,15.2-6.2,12.6-21
		c-10.6,6-22.2,13.2-35,12.6c8.3-4.1,17.4-6.3,25.1-11.7c2.2-3-3.5-8.9-6-11.7C626.1,608.1,603,619.9,564,604
		c-10.9-5.9-18.2-16.1-28.2-22.7c-30.6-14.9-55.6-36.9-81.8-58.5c-3.7-2.2-7.4-8.1-11.6-6.8C437.9,520.6,434.9,527.2,435.7,533.5z
		 M279.2,540c3.4,8.6,8.3,8.3,18.1,7.9c-3-2.2-6.4-4.1-8.2-7.5c-1.1-1.3-1.8-4.6-4.1-3.4C283,537.8,281,538.8,279.2,540z
		 M279.6,556.7c4-0.2,8.4-3,12.3-2.5c-9.7,8.6-24.5,7.9-36.5,6.2c1.2,3,3.1,5.5,4.8,8.2c14.5,0.8,29.5-4.1,41.2-12
		c-2.8,5.6-8.3,9.9-12.3,14.7c3.1,1.9,6.6,4.5,10.4,4.3c2.8-5.8,6.6-11.1,11-15.8c4.9-2.7,1.2-8.7,0.1-12.6
		c-13.3,6.9-30,4.4-42.7-2.1C265.2,555,269.9,553.3,279.6,556.7z"/>
	<path class="st4" d="M193.4,286.2c18.4-1.9,54.1,13.2,59,18.9c4.1,6.1,7.5,16.9-0.6,20.7c-10.8,5-21.4,8.8-33.1,10.8
		c1.4-17.7-27.4-42.6-36.9-40c15.2,8.8,33.5,22.9,33.4,41c-31.7,9.3-65.1,3.2-97.6,0.5c-10.4-2.1-21.6-0.4-31.9-3.1
		c-5.3-10.8,30.8-19.9,35.2-22.9C144.9,302.5,167.5,289.4,193.4,286.2z M178.5,301.3c12.5,7.5,21.3,22,20.5,36.7
		C206.4,324.6,189.8,301.9,178.5,301.3z M146.5,304l-0.6,0.3c9.3,3,18.5,8.2,23.1,17.2C170.6,312,152,302,146.5,304z M142.5,313.8
		c5.7,6.2,9.9,14.9,7.6,23.5C156.9,331.9,149.9,314.4,142.5,313.8z M129.3,319.2c1.5,3,4.3,7.3,4.8,11.2
		C138.7,327.2,133.3,319.6,129.3,319.2z"/>
	<path class="st5" d="M127.5,481.1c9.2-3.3,11.1,16.8,11.7,21.2c0.5,3.1-3.1,5.1-5.6,6.3c-2.2-4.3-6.1-0.4-8.3,1.7
		c-7.9-3.5-15.6,2.9-22.2,6.6C106.2,501.9,113.2,487.3,127.5,481.1z M90.6,529.1c9.1-5.9,9.8-16.4,12.9-26.1
		c-0.2-1.4,7.2-18.8,4.3-18.6C96.9,496.5,93.7,513.9,90.6,529.1z M142,492.6c-0.2,3,0.7,6.1,0.7,9.2c5.9-3,15.1-9.6,20-2.6
		c-0.9-4.1-1.1-11.5-6.6-11.7C150.9,487.7,146.7,490.8,142,492.6z M131.7,519c1.3,4.3,4.3,8.2,6.9,12c0.7-1.7,29.9-34.9,17.5-32.1
		C144.5,504.5,141.5,504.2,131.7,519z M130.3,517.1c1.4-2,3.1-3.8,4.5-5.8c-1.4-0.9-3-2.1-4.8-1.8
		C126,511.2,127.9,514.9,130.3,517.1z"/>
	<path class="st6" d="M100.8,488.1c0.4-0.2,0.7,0.1,0.9,0.8c-15.9,21-11.2,38.8-17.4,56.6C75.2,522.1,85.4,503.1,100.8,488.1z
		 M140.7,534.2c9.3,18.1,1.1,36.9-16.9,47.7c0.3,0.9,0.7,1.8,1.1,2.7c26.3-21.5,55.1-39.7,36.7-81.7
		C158.3,515.6,147.5,523.8,140.7,534.2z M105.8,583.4c2.2-2,3.3-5,5.6-7c0.8,1.2,1.3,2.6,2.1,3.8c3.4-0.4,5.6-2,8.7-0.6
		c16.7-13.3,24.5-30.4,9.8-51.6c-4.5-4.8-5.6-16.8-14-13.8C84.3,529.7,80.7,552.8,105.8,583.4z"/>
	<path class="st7" d="M343.8,574.1c7.8-0.3,17.9-1.6,24.6,3.4c6.7,6.6,14.2,12.9,19,20.7c14.1,29.1-26.4,18.1-37.4,7.4
		C342.5,599.1,331.6,575.1,343.8,574.1z M462.7,626.5c14.9,8.7,58.7,6.9,42-19.5c-9.2-11.2-26-13.4-39.6-11.9
		C444,597.2,444.1,617.3,462.7,626.5z M496.3,632.2c-1.8,9.4,32.6,19.8,41.8,13.9c23.2-20,0.5-19.8-31.2-20.6
		C504.3,629.6,500.2,630.2,496.3,632.2z"/>
</g>
</svg>
