<svg version="1.1" id="Layer_1" xmlns="http://www.w3.org/2000/svg" xmlns:xlink="http://www.w3.org/1999/xlink" x="0px" y="0px"
	 viewBox="0 0 267.9 256.9" style="enable-background:new 0 0 267.9 256.9;" xml:space="preserve">
<style type="text/css">
	.st0{fill:#FFC435;stroke:#FFC435;stroke-width:15;stroke-miterlimit:10;}
	.st1{fill:#D260A4;}
</style>
<path class="st0" d="M203.3,249.4c-2.3,0-4.6-0.5-6.7-1.7L134,214.8l-62.7,32.9c-4.9,2.5-10.6,2.1-15.1-1.1c-4.4-3.2-6.6-8.6-5.7-14
	l12-69.8l-50.7-49.4c-3.9-3.8-5.3-9.4-3.6-14.6c1.7-5.2,6.1-8.9,11.5-9.7l70.1-10.2l31.3-63.5c2.4-4.9,7.3-8,12.8-8c0,0,0,0,0,0
	c5.5,0,10.4,3.1,12.8,8l31.3,63.5l70.1,10.2c5.4,0.8,9.8,4.5,11.5,9.7c1.7,5.2,0.3,10.8-3.6,14.6l-50.7,49.4l12,69.8
	c0.9,5.4-1.3,10.8-5.7,14C209.2,248.5,206.2,249.4,203.3,249.4z"/>
<path class="st1" d="M245.7,105.8L245.7,105.8L245.7,105.8z"/>
<polygon class="st1" points="131.6,22.9 131.6,22.9 131.6,22.9 "/>
</svg>
